P3
11 10
255
0 0 0 0 0 0 0 0 0 0 0 0 0 0 0 0 0 0 0 0 0 0 0 0 0 0 0 0 0 0 0 0 0 
0 0 0 0 0 0 148 102 53 0 0 0 148 102 53 1 1 3 0 0 0 148 102 53 0 0 2 0 0 0 0 0 0 
0 0 0 0 0 0 148 102 53 148 102 53 5 1 3 148 102 53 0 0 0 148 102 53 148 102 53 0 2 1 0 0 0 
0 0 0 0 0 0 0 0 0 148 102 53 148 102 53 148 102 53 135 104 68 148 102 53 2 2 2 0 0 0 0 0 0 
0 0 0 0 0 0 0 0 0 148 102 53 230 189 145 230 189 145 146 100 53 149 101 53 19 19 19 0 0 0 0 0 0 
0 0 0 0 0 0 148 102 53 230 189 145 223 182 136 230 189 145 224 180 137 148 102 53 0 1 0 0 0 0 0 0 0 
0 0 0 0 0 0 148 102 53 230 189 145 230 189 145 230 189 145 230 189 145 231 188 143 1 1 3 0 0 0 0 0 0 
0 0 0 0 0 0 148 102 53 230 188 146 230 189 145 227 183 134 230 189 145 6 3 10 0 0 0 0 0 0 0 0 0 
0 0 0 0 0 0 0 0 0 1 3 1 148 102 53 0 0 0 148 102 53 0 0 0 0 0 0 0 0 0 0 0 0 
0 0 0 0 0 0 0 0 0 0 0 0 0 0 0 0 0 0 0 0 0 0 0 0 0 0 0 0 0 0 0 0 0 
