P3
5 4
255
0 0 0 0 0 0 0 0 0 0 0 0 0 0 0 
0 0 0 148 102 53 148 102 53 0 0 0 0 0 0 
0 0 0 1 3 1 148 102 53 148 102 53 0 0 0 
0 0 0 0 0 0 0 0 0 0 0 0 0 0 0 
